# xmcd
#
# Track frame offsets:
#	180
#	15832
#	44808
#	78198
#	92061
#	120481
#	149632
#	166977
#	195443
#	216671
#
# Disc length: 3079 seconds
#
# Revision: 0
# Processed by: cddbd v1.5.2PL0 Copyright (c) Steve Scherf et al.
# Submitted via: dBpowerAMP V4.0
#
DISCID=860c050a
DTITLE=Ensamble - Ensamble - Danza del Cuervo
DYEAR=1900
DGENRE=Colombiana
TTITLE0=Fandango
TTITLE1=Lauren
TTITLE2=Danza del cuervo
TTITLE3=Capricho
TTITLE4=Armero
TTITLE5=Premonición
TTITLE6=Mabsacada
TTITLE7=Ricercar
TTITLE8=Paradigma
TTITLE9=Rotalamarando
EXTD=Folklor colombiano
EXTT0=
EXTT1=
EXTT2=
EXTT3=
EXTT4=
EXTT5=
EXTT6=
EXTT7=
EXTT8=
EXTT9=
PLAYORDER=
